PathFileType	4	(x/y/z)	S04_P20_T07.trc
DataRate	CameraRate	NumFrames	NumMarkers	Units	OrigDataRate	OrigDataStartFrame	OrigNumFrames
240	240	4	51	mm	240	139	369
Frame#	Time	Sternum			R.Acromium			L.Acromium			Top.Head			R.ASIS			L.ASIS			R.PSIS			L.PSIS			R.Great.Tro			L.Great.Tro			R.Iliac.Crest			L.Iliac.Crest			V.Sacral			R.Thigh.Upper.Post			R.Thigh.Lower.Ant			R.Thigh.Lower.Post			R.Thigh.Upper.Ant			R.Knee.Lat			R.Knee.Med			R.Shank.Upper.Post			R.Shank.Lower.Ant			R.Shank.Lower.Post			R.Shank.Upper.Ant			R.Ankle.Lat			R.Ankle.Med			R.Heel.Upper			R.Heel.Med			R.Heel.Lat			R.Toe.Lat			R.Toe.Med			R.Toe.Tip			L.Thigh.Upper.Post			L.Thigh.Lower.Ant			L.Thigh.Lower.Post			L.Thigh.Upper.Ant			L.Knee.Lat			L.Knee.Med			L.Shank.Upper.Post			L.Shank.Lower.Ant			L.Shank.Lower.Post			L.Shank.Upper.Ant			L.Ankle.Lat			L.Ankle.Med			L.Heel.Upper			L.Heel.Med			L.Heel.Lat			L.Toe.Lat			L.Toe.Med			L.Toe.Tip			Cervical.Spine			Back			
		X1	Y1	Z1	X2	Y2	Z2	X3	Y3	Z3	X4	Y4	Z4	X5	Y5	Z5	X6	Y6	Z6	X7	Y7	Z7	X8	Y8	Z8	X9	Y9	Z9	X10	Y10	Z10	X11	Y11	Z11	X12	Y12	Z12	X13	Y13	Z13	X14	Y14	Z14	X15	Y15	Z15	X16	Y16	Z16	X17	Y17	Z17	X18	Y18	Z18	X19	Y19	Z19	X20	Y20	Z20	X21	Y21	Z21	X22	Y22	Z22	X23	Y23	Z23	X24	Y24	Z24	X25	Y25	Z25	X26	Y26	Z26	X27	Y27	Z27	X28	Y28	Z28	X29	Y29	Z29	X30	Y30	Z30	X31	Y31	Z31	X32	Y32	Z32	X33	Y33	Z33	X34	Y34	Z34	X35	Y35	Z35	X36	Y36	Z36	X37	Y37	Z37	X38	Y38	Z38	X39	Y39	Z39	X40	Y40	Z40	X41	Y41	Z41	X42	Y42	Z42	X43	Y43	Z43	X44	Y44	Z44	X45	Y45	Z45	X46	Y46	Z46	X47	Y47	Z47	X48	Y48	Z48	X49	Y49	Z49	X50	Y50	Z50	X51	Y51	Z51	

139	0.575	-606.57	1262.6	262.09	-742.05	1489.6	433.88	-738.67	1472.6	83.031	-725.02	1814.7	238.79	-627.83	985.88	383.78	-651.04	992.84	137.12	-851.26	1008.3	307.91	-847.91	1012.6	226.06	-700.96	903.52	457.16	-777.96	908.29	82.095	-717.71	1069.6	434.97	-747.2	1075.3	97.744	-868.72	967.95	267.8	-630.66	651.55	433.22	-537.95	597.31	388.12	-604.88	566.1	413.25	-559.9	702.8	415.83	-558.53	512.81	399.45	-596.93	500.92	271.62	-579.85	275.51	395.6	-501.38	216.4	346.44	-565.37	208.01	379.47	-517.6	283.62	372.35	-530.86	100.65	354.44	-515.59	119.97	264.87	-586.99	64.522	295.94	-571.52	36.914	265.62	-577.52	32.913	329.83	-411.42	59.615	379.2	-376.26	73.65	264.5	-320.9	107.94	312.37	-818.53	679.38	100.65	-749.09	574.56	95.316	-818.47	590.12	110.04	-753.49	664.55	83.741	-802.4	491.03	108.83	-784.37	473.21	232.79	-968.5	380.68	124.17	-953.93	270.72	121.76	-1002.5	311.69	133.31	-919.14	339.15	111.67	-1053.9	149.52	151.4	-1039.7	162.79	241.86	-1134.1	155.5	199.71	-1136.7	132.9	235.05	-1142.8	127.52	174.01	-983.83	44.889	136.39	-948.23	46.744	251.48	-895.38	41.774	203.15	-792.51	1534.3	260.63	-867.49	1276.1	239.57
140	0.57917	-601.07	1262.7	262.37	-736.6	1489.5	434.51	-733.93	1472.6	83.651	-719.75	1814.7	239.32	-621.91	985.95	384.12	-645.46	992.8	137.5	-845.54	1008.2	308.29	-842.17	1012.3	226.42	-695.01	903.56	457.47	-771.94	907.85	82.393	-711.62	1069.6	435.34	-741.65	1075.2	98.097	-862.94	967.73	268.23	-625.03	651.61	433.4	-532.59	597.1	388.09	-599.5	566.08	413.5	-554.23	702.69	415.69	-553.44	512.48	399.47	-592.56	500.65	271.92	-576.49	275.29	395.96	-498.79	215.44	346.33	-562.67	207.64	379.78	-514.32	282.84	372.27	-529.45	100.05	354.61	-514.1	119.26	264.98	-586.2	64.974	296.17	-571.26	37.209	265.75	-577.24	33.18	329.96	-410.61	57.519	379.03	-375.42	71.25	264.29	-319.43	104.65	312.12	-810.52	678.2	100.25	-740.18	574.03	94.098	-809.63	588.91	109.29	-745.38	664.02	82.986	-792.78	490.34	107.68	-774.04	471.89	231.54	-960.21	382.64	123.5	-947.47	272.5	120.87	-995.35	314.23	132.66	-911.5	340.38	110.77	-1049.1	152.84	150.59	-1034.5	166.14	240.96	-1128.9	161.63	199.03	-1132.2	139.55	234.65	-1138.6	133.86	173.61	-982.83	45.921	136.36	-946.89	47.597	251.31	-894.79	41.395	203.09	-787.37	1534.3	261.38	-862.03	1275.8	240.36
141	0.58333	-595.58	1262.9	262.63	-731.12	1489.4	435.12	-729.2	1472.7	84.263	-714.5	1814.7	239.86	-616.05	986.06	384.46	-639.91	992.77	137.89	-839.86	1008.2	308.65	-836.48	1012.1	226.76	-689.13	903.66	457.79	-765.94	907.42	82.699	-705.59	1069.6	435.71	-736.12	1075.2	98.452	-857.21	967.55	268.65	-619.46	651.71	433.64	-527.26	596.95	388.13	-594.16	566.13	413.81	-548.62	702.63	415.63	-548.4	512.19	399.56	-588.16	500.45	272.29	-573.19	275.11	396.37	-496.27	214.55	346.28	-560.04	207.34	380.13	-511.11	282.1	372.25	-528.11	99.51	354.81	-512.67	118.64	265.14	-585.45	65.418	296.42	-571	37.532	265.89	-576.97	33.444	330.11	-409.85	55.524	378.92	-374.63	68.985	264.15	-318.05	101.49	311.95	-802.4	677.01	99.815	-731.12	573.53	92.846	-800.65	587.71	108.5	-737.18	663.52	82.191	-782.94	489.67	106.49	-763.48	470.6	230.25	-951.61	384.67	122.79	-940.73	274.37	119.95	-987.87	316.85	131.98	-903.58	341.69	109.86	-1044.1	156.31	149.74	-1029	169.61	240.03	-1123.3	167.97	198.32	-1127.3	146.44	234.23	-1134.1	140.45	173.18	-981.68	47.133	136.3	-945.37	48.6	251.09	-894.09	41.028	202.97	-782.22	1534.2	262.14	-856.59	1275.6	241.14
142	0.5875	-590.1	1263.1	262.85	-725.61	1489.3	435.73	-724.48	1472.8	84.866	-709.26	1814.8	240.4	-610.25	986.21	384.81	-634.4	992.75	138.28	-834.22	1008.2	308.99	-830.83	1011.9	227.08	-683.34	903.82	458.13	-759.96	906.98	83.014	-699.61	1069.6	436.07	-730.62	1075.1	98.808	-851.54	967.43	269.06	-613.96	651.86	433.94	-521.99	596.86	388.25	-588.88	566.22	414.17	-543.06	702.63	415.65	-543.43	511.93	399.71	-583.72	500.32	272.69	-569.97	274.99	396.81	-493.82	213.72	346.27	-557.49	207.08	380.52	-507.99	281.42	372.29	-526.84	99.027	355.03	-511.3	118.09	265.35	-584.75	65.849	296.68	-570.75	37.872	266.05	-576.72	33.704	330.27	-409.15	53.641	378.86	-373.88	66.859	264.06	-316.74	98.469	311.85	-794.19	675.83	99.343	-721.94	573.08	91.568	-791.53	586.52	107.67	-728.88	663.05	81.361	-772.88	489.03	105.29	-752.7	469.36	228.96	-942.71	386.76	122.05	-933.7	276.33	119.02	-980.08	319.55	131.27	-895.38	343.05	108.94	-1038.8	159.94	148.86	-1023.2	173.19	239.07	-1117.3	174.51	197.56	-1122.1	153.56	233.77	-1129.3	147.28	172.71	-980.37	48.538	136.22	-943.65	49.771	250.82	-893.23	40.682	202.78	-777.06	1534.2	262.89	-851.16	1275.5	241.92
